<svg xmlns="http://www.w3.org/2000/svg" viewBox="0 0 500 500"><g id="freepik--Floor--inject-3"><path id="freepik--floor--inject-3" d="M77.66,248.43c-95.18,54.95-95.17,144,0,199s249.49,55,344.67,0,95.17-144,0-199S172.84,193.48,77.66,248.43Z" style="fill:#fafafa"></path></g><g id="freepik--Graphics--inject-3"><path id="freepik--Cross--inject-3" d="M48.49,243.84l-9.28-5.45,5.45-9.28a1.38,1.38,0,0,0-2.39-1.4L36.82,237l-9.28-5.45a1.38,1.38,0,0,0-1.4,2.39l9.28,5.45L30,248.66a1.4,1.4,0,0,0,.5,1.9,1.38,1.38,0,0,0,1.89-.5l5.45-9.28,9.28,5.45a1.38,1.38,0,0,0,1.4-2.39Z" style="fill:#f0f0f0"></path><path id="freepik--cross--inject-3" d="M466.35,72.86l-6.81-8.33,8.33-6.81a1.39,1.39,0,0,0-1.76-2.15l-8.32,6.81L451,54.05a1.39,1.39,0,0,0-2.14,1.76l6.81,8.33L447.31,71a1.39,1.39,0,0,0,1.76,2.14l8.32-6.81,6.82,8.33a1.38,1.38,0,1,0,2.14-1.75Z" style="fill:#f0f0f0"></path><path id="freepik--cross--inject-3" d="M56.38,55.76l-6.81-8.33,8.33-6.81a1.39,1.39,0,1,0-1.75-2.15l-8.33,6.82L41,37a1.39,1.39,0,1,0-2.15,1.75L45.67,47l-8.33,6.81A1.39,1.39,0,0,0,39.1,56l8.33-6.82,6.81,8.33a1.38,1.38,0,1,0,2.14-1.75Z" style="fill:#f0f0f0"></path></g><g id="freepik--Icons--inject-3"><g id="freepik--Dislike--inject-3"><path d="M442.8,179.72s3.16,9.24,3.32,10.64-1.84,6.79-2.12,7.8,4.41,2.68,6.91-.56a15.31,15.31,0,0,0,3.49-9.86L466,190.91a3.72,3.72,0,0,0,4.46-2.71,4.07,4.07,0,0,0-1-3.91,3.36,3.36,0,0,0,3.22-2.64,3.78,3.78,0,0,0-1.87-4.29,4.6,4.6,0,0,0,1.5-2.56c.35-1.26-.71-3.84-2.34-4.29a7.35,7.35,0,0,0,1.22-2.5A4.18,4.18,0,0,0,468,163.2L448.72,158Z" style="fill:#e0e0e0"></path><path d="M446.75,154.27l-8.4-2.28-6.87,25.33,8.38,2.28ZM443,156.83a1.55,1.55,0,1,1-1.77-1.29A1.55,1.55,0,0,1,443,156.83Z" style="fill:#e0e0e0"></path></g><g id="freepik--dislike--inject-3"><path d="M147.33,58.69s2.48,8.79,2.56,10.1S147.82,75,147.51,76s4,2.73,6.48-.17a14.33,14.33,0,0,0,3.76-9l10.7,3.55a3.47,3.47,0,0,0,4.3-2.3,3.84,3.84,0,0,0-.7-3.7,3.15,3.15,0,0,0,3.14-2.3,3.54,3.54,0,0,0-1.53-4.1,4.31,4.31,0,0,0,1.54-2.32c.38-1.16-.47-3.62-2-4.12a6.93,6.93,0,0,0,1.27-2.28,3.91,3.91,0,0,0-2.82-4.66L154,38.68Z" style="fill:#e0e0e0"></path><path d="M152.32,35.13l-7.73-2.56-7.71,23.3,7.71,2.56Zm-3.61,2.2a1.45,1.45,0,1,1-1.59-1.3A1.45,1.45,0,0,1,148.71,37.33Z" style="fill:#e0e0e0"></path></g><g id="freepik--dislike--inject-3"><path d="M382.89,37.82a.6.6,0,0,1,.59.5l3.4,20.18a.58.58,0,0,1-.1.44.61.61,0,0,1-.39.25l-6.68,1.12a.59.59,0,0,1-.69-.49l-3.4-20.18a.58.58,0,0,1,.1-.44.61.61,0,0,1,.39-.25l6.68-1.12ZM385.6,58.1l-3.2-19-5.5.93,3.2,19ZM374.4,41.65a.6.6,0,0,1,.59.5l2.92,17.34a.69.69,0,0,1,0,.35c-1.27,2.76-3.2,7.13-3.36,7.87a23.62,23.62,0,0,0,.81,4.86c.12.52.21.93.24,1.13s0,.87-1,1.27a4.56,4.56,0,0,1-5.38-1.81,12.43,12.43,0,0,1-2.09-7.52l-8.52,1.43a3.5,3.5,0,0,1-3.94-2.93,3.74,3.74,0,0,1,.57-2.75,3.27,3.27,0,0,1-1.82-2.5,3.66,3.66,0,0,1,1.46-3.48,5.09,5.09,0,0,1-.65-1.81A4.05,4.05,0,0,1,356.05,50a6.72,6.72,0,0,1-.49-1.61A3.83,3.83,0,0,1,359,44.24l15.33-2.58Zm2.3,17.86L373.91,43l-14.74,2.48a2.66,2.66,0,0,0-2.43,2.79,5.35,5.35,0,0,0,.66,1.8.61.61,0,0,1-.4.93,2.69,2.69,0,0,0-1.66,2.45,3,3,0,0,0,.78,1.75.6.6,0,0,1,.19.55.59.59,0,0,1-.36.46,2.33,2.33,0,0,0-1.41,2.53,2,2,0,0,0,1.74,1.79.62.62,0,0,1,.53.41.63.63,0,0,1-.18.65,2.56,2.56,0,0,0-.85,2.4,2.3,2.3,0,0,0,2.56,2l9.26-1.56a.62.62,0,0,1,.51.15.58.58,0,0,1,.19.49,11.42,11.42,0,0,0,1.86,7.55,3.24,3.24,0,0,0,2.58,1.5,3,3,0,0,0,1.61-.28c0-.21-.12-.53-.2-.9-.54-2.34-1-4.51-.81-5.38C373.56,66.42,376.14,60.74,376.7,59.51Z" style="fill:#e0e0e0"></path></g><g id="freepik--dislike--inject-3"><path d="M53.22,119.8a.6.6,0,0,1,.59.51l3.46,20.49a.68.68,0,0,1-.11.46.61.61,0,0,1-.39.25L50,142.65a.6.6,0,0,1-.7-.5l-3.45-20.49a.62.62,0,0,1,.1-.46.66.66,0,0,1,.4-.25l6.78-1.14ZM56,140.41l-3.25-19.3-5.58.94,3.25,19.3ZM44.59,123.7a.61.61,0,0,1,.6.51l3,17.61a.6.6,0,0,1,0,.35c-1.28,2.8-3.25,7.24-3.41,8a24.38,24.38,0,0,0,.82,4.94c.12.53.22.94.25,1.14s0,.9-1.05,1.3a4.64,4.64,0,0,1-5.47-1.84,12.66,12.66,0,0,1-2.12-7.64l-8.65,1.46a3.57,3.57,0,0,1-4-3,3.81,3.81,0,0,1,.59-2.79,3.31,3.31,0,0,1-1.85-2.55,3.68,3.68,0,0,1,1.49-3.53,4.81,4.81,0,0,1-.67-1.84A4.08,4.08,0,0,1,26,132.21a7,7,0,0,1-.5-1.64,3.88,3.88,0,0,1,3.46-4.24l15.58-2.62Zm2.33,18.13L44.09,125l-15,2.52a2.71,2.71,0,0,0-2.46,2.83,5.22,5.22,0,0,0,.68,1.84.6.6,0,0,1,0,.58.58.58,0,0,1-.45.35,2.76,2.76,0,0,0-1.69,2.5A3.09,3.09,0,0,0,26,137.4a.64.64,0,0,1,.2.57.62.62,0,0,1-.37.46A2.39,2.39,0,0,0,24.41,141a2,2,0,0,0,1.77,1.82.63.63,0,0,1,.54.42.61.61,0,0,1-.18.65,2.61,2.61,0,0,0-.86,2.44,2.33,2.33,0,0,0,2.59,2l9.42-1.59a.64.64,0,0,1,.51.15.6.6,0,0,1,.19.5,11.61,11.61,0,0,0,1.9,7.67,3.3,3.3,0,0,0,2.61,1.53,3,3,0,0,0,1.64-.3c0-.21-.12-.53-.21-.91-.54-2.37-1-4.58-.82-5.46C43.74,148.85,46.36,143.08,46.92,141.83Z" style="fill:#e0e0e0"></path></g></g><g id="freepik--Plants--inject-3"><g id="freepik--plants--inject-3"><path d="M62.87,404.89s7.87-31.18-3-63.22c-6.1-17.9-18.43-26.95-26.24-28.35-8.75-1.56-18.06,5.11-10.91,17.17,6.8,11.46,20.87,17,27.66,46,4.47,19.12,2.91,31.4,2.91,31.4Z" style="fill:#384B79"></path><path d="M62.87,404.89s7.87-31.18-3-63.22c-6.1-17.9-18.43-26.95-26.24-28.35-8.75-1.56-18.06,5.11-10.91,17.17,6.8,11.46,20.87,17,27.66,46,4.47,19.12,2.91,31.4,2.91,31.4Z" style="fill:#fff;opacity:0.5"></path><path d="M57.87,396.44a.52.52,0,0,1-.46-.58C63.17,361.51,46,331,32,320.34a.45.45,0,0,1-.08-.69.59.59,0,0,1,.78,0c14.22,10.84,31.64,41.72,25.81,76.45A.54.54,0,0,1,57.87,396.44Z" style="fill:#fff"></path><path d="M53.26,407.92c-.84-8.07-5.35-16.65-15.51-26.18s-24.37-18.62-21.81-26.17,14.05-5.06,22-.21,25.27,23.07,20.16,51.05Z" style="fill:#384B79"></path><path d="M53.26,407.92c-.84-8.07-5.35-16.65-15.51-26.18s-24.37-18.62-21.81-26.17,14.05-5.06,22-.21,25.27,23.07,20.16,51.05Z" style="fill:#fff;opacity:0.65"></path><path d="M56,399.18a.53.53,0,0,1-.47-.48c-.63-17-21.4-39.76-31.34-43.76a.49.49,0,0,1-.3-.65.55.55,0,0,1,.72-.24c10.42,4.2,31.37,27,32,44.65a.49.49,0,0,1-.53.49Z" style="fill:#fff"></path></g></g><g id="freepik--Shadows--inject-3"><ellipse id="freepik--Shadow--inject-3" cx="265.44" cy="402.77" rx="68.4" ry="39.49" style="fill:#e0e0e0"></ellipse><ellipse id="freepik--shadow--inject-3" cx="107.28" cy="425.09" rx="70.92" ry="40.95" style="fill:#e0e0e0"></ellipse><polygon id="freepik--shadow--inject-3" points="453.01 435.1 207.65 293.52 236.9 276.64 482.25 418.21 453.01 435.1" style="fill:#e0e0e0"></polygon></g><g id="freepik--arrow-2--inject-3"><g id="freepik--down-arrows--inject-3"><polygon points="480.33 291.37 425.86 259.92 453.1 309.95 480.33 291.37" style="fill:#384B79;opacity:0.5"></polygon><polygon points="480.33 268.49 425.86 237.04 453.1 287.08 480.33 268.49" style="fill:#384B79;opacity:0.30000000000000004"></polygon><polygon points="480.33 245.62 425.86 214.17 453.1 264.21 480.33 245.62" style="fill:#384B79;opacity:0.1"></polygon></g></g><g id="freepik--arrow-1--inject-3"><g id="freepik--Arrow--inject-3"><polygon points="305.27 240.81 276.03 257.69 307.57 228.27 336.81 211.38 305.27 240.81" style="fill:#384B79"></polygon><polygon points="336.81 211.38 305.27 240.81 276.03 257.69 307.57 228.27 336.81 211.38" style="opacity:0.30000000000000004"></polygon><polygon points="301.82 233.63 276.03 257.69 225.38 152.4 254.63 135.51 301.82 233.63" style="fill:#384B79"></polygon><polygon points="387.45 316.68 358.21 333.56 389.75 304.14 419 287.26 387.45 316.68" style="fill:#384B79"></polygon><polygon points="419 287.26 387.45 316.68 358.21 333.56 389.75 304.14 419 287.26" style="opacity:0.30000000000000004"></polygon><polygon points="389.75 304.14 418.99 287.25 458 369.43 465.88 365.13 464.39 417.27 420.56 389.88 428.42 385.59 389.75 304.14" style="fill:#384B79"></polygon><polygon points="384 309.5 358.21 333.56 307.57 228.27 336.81 211.38 384 309.5" style="fill:#384B79"></polygon></g></g><g id="freepik--light-bulb--inject-3"><g id="freepik--Bulb--inject-3"><g id="freepik--Socket--inject-3"><ellipse cx="265.36" cy="391.56" rx="23.23" ry="13.41" transform="translate(-6.78 4.68) rotate(-1)" style="fill:#263238"></ellipse><path d="M243.48,396.33l3.77-.06A11.5,11.5,0,0,1,252,391.4c7.3-4.39,19.26-4.6,26.71-.47a11.68,11.68,0,0,1,4.92,4.7l3.76-.06-4.2,6.92h0a12.36,12.36,0,0,1-4.19,3.86c-7.3,4.39-19.26,4.6-26.71.47a12.47,12.47,0,0,1-4.33-3.72h0Z" style="fill:#263238"></path><path d="M289.71,394.5c13.25-8,13-20.56-.56-28s-35.31-7-48.57,1-13,20.56.56,28S276.45,402.52,289.71,394.5Z" style="fill:#455a64"></path><path d="M290.52,389.94c13.75-8.31,13.49-21.33-.58-29.08s-36.63-7.3-50.38,1-13.48,21.33.59,29.08S276.77,398.25,290.52,389.94Z" style="fill:#37474f"></path><path d="M291.05,384.87c14.1-8.52,13.83-21.87-.59-29.82s-37.55-7.49-51.65,1S225,378,239.41,385.9,277,393.39,291.05,384.87Z" style="fill:#455a64"></path><path d="M291.59,379.79c14.45-8.73,14.17-22.41-.61-30.55s-38.48-7.67-52.92,1.05-14.17,22.41.61,30.56S277.15,388.52,291.59,379.79Z" style="fill:#37474f"></path><path d="M292.13,374.71c14.79-8.94,14.51-22.95-.63-31.29s-39.4-7.85-54.19,1.09-14.52,22.95.62,31.29S277.33,383.65,292.13,374.71Z" style="fill:#455a64"></path><path d="M292.66,369.63c15.14-9.15,14.86-23.48-.64-32s-40.33-8-55.47,1.11-14.85,23.49.64,32S277.52,378.78,292.66,369.63Z" style="fill:#37474f"></path></g><path d="M223.16,334.73c-.11-6.06,3.78-12.2,11.7-17,15.84-9.58,41.83-10.1,58.05-1.17,8.11,4.47,12.23,10.45,12.35,16.52.05,2.35.23,11.59.28,13.95.12,6.06-3.78,12.21-11.7,17C278,373.61,252,374.13,235.78,365.2c-8.1-4.46-12.23-10.45-12.34-16.52C223.4,346.34,223.21,337.09,223.16,334.73Z" style="fill:#384B79"></path><path d="M376.93,225.17c-19.72,55.61-70.83,73.37-70.2,104.89.13,6.28-3.91,12.66-12.13,17.62-16.43,9.95-43.4,10.49-60.23,1.21-8.4-4.63-12.69-10.85-12.81-17.13-.4-19.76-20.89-33.3-41.54-54.14s-41.42-49-42.4-98a123.47,123.47,0,0,1,198-100.87l13.4,32.92L303.83,97.23l29.77,19.51-66.36,28.2,80.32,9.69L333.5,207.22l34.37-26.46Z" style="fill:#384B79"></path><path d="M376.93,225.17c-19.72,55.61-70.83,73.37-70.2,104.89.13,6.28-3.91,12.66-12.13,17.62-16.43,9.95-43.4,10.49-60.23,1.21-8.4-4.63-12.69-10.85-12.81-17.13-.4-19.76-20.89-33.3-41.54-54.14s-41.42-49-42.4-98a123.47,123.47,0,0,1,198-100.87l13.4,32.92L303.83,97.23l29.77,19.51-66.36,28.2,80.32,9.69L333.5,207.22l34.37-26.46Z" style="fill:#fff;opacity:0.6000000000000001"></path><path d="M289.62,345.16c13.75-8.31,13.49-21.33-.58-29.08s-36.62-7.31-50.37,1-13.49,21.33.58,29.09S275.87,353.47,289.62,345.16Z" style="fill:#384B79"></path><path d="M289.62,345.16c13.75-8.31,13.49-21.33-.58-29.08s-36.62-7.31-50.37,1-13.49,21.33.58,29.09S275.87,353.47,289.62,345.16Z" style="fill:#fff;opacity:0.4"></path><path d="M233.15,341.69a26.85,26.85,0,0,0,6.1,4.48c14.08,7.75,36.63,7.3,50.37-1a27,27,0,0,0,5.91-4.72,26.29,26.29,0,0,0-6.09-4.49c-14.08-7.76-36.63-7.3-50.38,1A26.19,26.19,0,0,0,233.15,341.69Z" style="fill:#384B79;opacity:0.25"></path><path d="M233.15,341.69a26.85,26.85,0,0,0,6.1,4.48c14.08,7.75,36.63,7.3,50.37-1a27,27,0,0,0,5.91-4.72,26.29,26.29,0,0,0-6.09-4.49c-14.08-7.76-36.63-7.3-50.38,1A26.19,26.19,0,0,0,233.15,341.69Z" style="fill:#384B79"></path><path d="M196.78,104.78a19.28,19.28,0,0,1,4.38,2.49c5,3.75,7.12,10.51,6.34,16.7C206,136,194.64,143.62,188.17,153a106.22,106.22,0,0,0-15.42,34c-.91,3.62-2.07,9.61-3.86,12.88-2.8,5.15-8.87,6.07-12.2,4.38-4.85-2.45-7.45-8.41-8.22-13.09-4.56-27.86.73-48.87,14.38-70.64C170.29,108.68,182.2,98.87,196.78,104.78Z" style="fill:#fff;opacity:0.5"></path><path d="M172.45,219a13.57,13.57,0,0,1-1.06,11.08c-2,3.75-7.27,4.83-10.79,2.69a12.76,12.76,0,0,1-6.08-10.58c0-4.52,2.81-9.41,7.82-10C167,211.65,171.12,215.25,172.45,219Z" style="fill:#fff;opacity:0.5"></path><path d="M239.64,252.24A82.64,82.64,0,0,0,233.26,237a37.83,37.83,0,0,1-4.08,1c-14.31,2.69-22.75-1.29-25.89-5.9a9.35,9.35,0,0,1,.05-10.62c2-3.12,5.51-4.6,9.73-4.05,6.25.81,14.19,6.07,20.91,17.86a74.2,74.2,0,0,0,26.92-16.51,32.42,32.42,0,0,1-4.2-4.8c-6.93-10.08-6.71-18.92-4.19-23.84a9.89,9.89,0,0,1,17.64-.35c2.72,4.81,3.3,13.63-3.23,24a32.25,32.25,0,0,1-4,5,74.2,74.2,0,0,0,27.56,15.42c6.24-12.05,14-17.62,20.18-18.68,4.18-.72,7.79.62,9.89,3.66a9.35,9.35,0,0,1,.47,10.6c-2.95,4.74-11.24,9.05-25.64,6.94a40.72,40.72,0,0,1-4.12-.84,83.26,83.26,0,0,0-5.76,15.52c-5.55,20.57-7.55,48-6.67,91.83l-1.43,0c-.88-43.94,1.13-71.52,6.72-92.23a86.51,86.51,0,0,1,5.7-15.54,76.19,76.19,0,0,1-27.89-15.7,76.41,76.41,0,0,1-27.24,16.81A86.25,86.25,0,0,1,241,251.81c6.41,20.47,9.52,47.95,10.4,91.89l-1.43,0C249.11,299.93,246,272.57,239.64,252.24Zm-26.75-33.43c-3.64-.47-6.68.76-8.34,3.4a7.87,7.87,0,0,0-.08,9c2.89,4.24,10.81,7.86,24.45,5.31,1.18-.23,2.39-.52,3.62-.87C226,224.52,218.48,219.54,212.89,218.81Zm98-2c-5.56,1-12.92,6.23-19,17.65,1.24.3,2.47.55,3.66.72,13.71,2,21.5-1.92,24.21-6.27a7.88,7.88,0,0,0-.43-9,7.72,7.72,0,0,0-6.77-3.23A11.25,11.25,0,0,0,310.9,216.85Zm-57.11-26.09c-2.93,5.71-1.33,14.49,4.09,22.36a31.42,31.42,0,0,0,4,4.61,31.32,31.32,0,0,0,3.82-4.76c5.1-8.09,6.36-16.93,3.2-22.51a8.46,8.46,0,0,0-15.12.3Z" style="fill:#455a64"></path></g></g><g id="freepik--speech-bubble--inject-3"><g id="freepik--Alert--inject-3"><g id="freepik--Bubble--inject-3"><path d="M415.26,81.17C410.58,78.51,404.13,78.92,397,83c-14.32,8.27-25.94,28.39-25.94,44.93,0,8.26,2.9,14.06,7.59,16.77l8.86,5.1c4.69,2.7,11.17,2.31,18.32-1.82,14.33-8.27,25.94-28.38,25.94-44.92,0-8.25-2.89-14-7.56-16.76C422.26,85.19,417.25,82.3,415.26,81.17Z" style="fill:#384B79"></path><path d="M415.26,81.17C410.58,78.51,404.13,78.92,397,83c-14.32,8.27-25.94,28.39-25.94,44.93,0,8.26,2.9,14.06,7.59,16.77l8.86,5.1c4.69,2.7,11.17,2.31,18.32-1.82,14.33-8.27,25.94-28.38,25.94-44.92,0-8.25-2.89-14-7.56-16.76C422.26,85.19,417.25,82.3,415.26,81.17Z" style="fill:#fff;opacity:0.5"></path><path d="M391.43,150.19a19.38,19.38,0,0,1-6.49,6.43,18,18,0,0,1-9.73,2.45.91.91,0,0,1-.45-.11l-8.83-5.08a.89.89,0,0,1,0-1.53,15.7,15.7,0,0,0,8.11-12.19Z" style="fill:#384B79"></path><path d="M391.43,150.19a19.38,19.38,0,0,1-6.49,6.43,18,18,0,0,1-9.73,2.45.91.91,0,0,1-.45-.11l-8.83-5.08a.89.89,0,0,1,0-1.53,15.7,15.7,0,0,0,8.11-12.19Z" style="fill:#fff;opacity:0.35000000000000003"></path><ellipse cx="405.84" cy="118.06" rx="36.68" ry="21.18" transform="translate(100.68 410.5) rotate(-60)" style="fill:#384B79"></ellipse><ellipse cx="405.84" cy="118.06" rx="36.68" ry="21.18" transform="translate(100.68 410.5) rotate(-60)" style="fill:#fff;opacity:0.25"></ellipse><path d="M382.79,141.36a15.7,15.7,0,0,1-8,16.07.88.88,0,0,0,.43,1.65,18.19,18.19,0,0,0,9.75-2.46c6.89-4.37,7.75-9.54,7.75-9.54Z" style="fill:#384B79"></path><path d="M382.79,141.36a15.7,15.7,0,0,1-8,16.07.88.88,0,0,0,.43,1.65,18.19,18.19,0,0,0,9.75-2.46c6.89-4.37,7.75-9.54,7.75-9.54Z" style="fill:#fff;opacity:0.25"></path></g><g id="freepik--alert--inject-3"><path d="M403.32,99.57l-13.4,38.67c-1.4,4,.48,5.58,4.18,3.45l23.51-13.58a7.75,7.75,0,0,0,2.84-10.59L409.73,99C407.6,95.26,404.71,95.54,403.32,99.57Z" style="fill:#fafafa"></path><path d="M407.31,122.68l-2.05,1.18a.43.43,0,0,1-.71-.39l-.83-15.3a1.38,1.38,0,0,1,.63-1.16l3.87-2.23c.37-.22.65,0,.63.38L408,121.52A1.57,1.57,0,0,1,407.31,122.68Z" style="fill:#455a64"></path><path d="M406.28,130.91c-1.3.75-2.08-.22-2.08-1.57a5,5,0,0,1,2.08-4c1.31-.75,2.09.22,2.09,1.58A4.94,4.94,0,0,1,406.28,130.91Z" style="fill:#455a64"></path></g></g></g><g id="freepik--Symbol--inject-3"><g id="freepik--question-mark--inject-3"><path d="M377.39,424.74a5.34,5.34,0,0,0-2.32-.52,7.61,7.61,0,0,0-3.79,1.18,15,15,0,0,0-3.84,3.23,24,24,0,0,0-3.06,4.49,24.72,24.72,0,0,0-2,5.24,21.4,21.4,0,0,0-.73,5.44,13,13,0,0,0,.73,4.64,6.35,6.35,0,0,0,2,2.88l.3.21c-1.14-.64-9.26-5.25-10.06-5.85a6.42,6.42,0,0,1-2-2.88,13.21,13.21,0,0,1-.73-4.64,21.79,21.79,0,0,1,.73-5.44,24.74,24.74,0,0,1,2-5.24,22.81,22.81,0,0,1,3.06-4.49,15.18,15.18,0,0,1,3.83-3.23,7.61,7.61,0,0,1,3.79-1.18,5.24,5.24,0,0,1,2.69.71C368.1,419.36,375.07,423.37,377.39,424.74Z" style="fill:#263238"></path><path d="M380.91,349.84a5.67,5.67,0,0,0-3.67-.57,10.64,10.64,0,0,0-2.94.89,17.07,17.07,0,0,1,.09,1.8,27.37,27.37,0,0,1-1.5,9.08,53.73,53.73,0,0,1-3.73,8.37c-1.49,2.69-3.08,5.32-4.78,7.86s-3.24,5.05-4.63,7.52a44.15,44.15,0,0,0-3.31,7.44,17.92,17.92,0,0,0-.87,7.51L356.66,413l9.76,5.65-1.07-13.25a17.91,17.91,0,0,1,.85-7.51,42.07,42.07,0,0,1,3.33-7.44q2.06-3.71,4.62-7.52c1.69-2.54,3.29-5.17,4.77-7.86a53.37,53.37,0,0,0,3.74-8.37,27.35,27.35,0,0,0,1.49-9.07,12.23,12.23,0,0,0-.85-5A5.62,5.62,0,0,0,380.91,349.84Z" style="fill:#263238"></path><path d="M381.28,324.69a12.38,12.38,0,0,0-6.92-.85,27.87,27.87,0,0,0-10.11,3.79,50.77,50.77,0,0,0-7.59,5.36,63.87,63.87,0,0,0-6.51,6.44,77.46,77.46,0,0,0-5.58,7.22q-2.58,3.78-4.74,7.59l4.14,6.37a2.11,2.11,0,0,0,.91,1c.61.32,8.88,5.15,9.74,5.63a2.26,2.26,0,0,1-.89-1l-4.14-6.37q2.16-3.81,4.75-7.59a74.2,74.2,0,0,1,5.58-7.22,63.77,63.77,0,0,1,6.5-6.44,51.07,51.07,0,0,1,7.59-5.36,27.72,27.72,0,0,1,10.12-3.79,12.37,12.37,0,0,1,7.18,1C388.52,328.82,381.54,324.8,381.28,324.69Z" style="fill:#37474f"></path><path d="M344.88,361.6c.61.32,8.88,5.15,9.74,5.63a2.26,2.26,0,0,1-.89-1l-4.14-6.37h0l-9.76-5.64,4.14,6.37A2.11,2.11,0,0,0,344.88,361.6Z" style="fill:#263238"></path><path d="M349.59,359.88q2.16-3.81,4.75-7.59a75.43,75.43,0,0,1,5.58-7.22,62.86,62.86,0,0,1,6.51-6.44,49.56,49.56,0,0,1,7.59-5.36,27.68,27.68,0,0,1,10.11-3.79,12,12,0,0,1,7.81,1.31,12.35,12.35,0,0,1,5,6.23,29,29,0,0,1,1.79,11,48.52,48.52,0,0,1-1.41,12,62.33,62.33,0,0,1-3.5,10.23,70.71,70.71,0,0,1-4.63,8.71l-4.75,7.55q-2.24,3.54-3.86,6.65a17.28,17.28,0,0,0-1.95,6l-1.46,13.27-10.78,6.22-1.09-13.24a18.08,18.08,0,0,1,.86-7.51,43.43,43.43,0,0,1,3.32-7.44q2.07-3.71,4.63-7.52t4.78-7.87a54.15,54.15,0,0,0,3.73-8.36,27.4,27.4,0,0,0,1.5-9.07,12.39,12.39,0,0,0-.86-5,5.3,5.3,0,0,0-6.06-3.35,13,13,0,0,0-4.63,1.74,29.91,29.91,0,0,0-6.15,4.61,47,47,0,0,0-4.28,4.85c-1.16,1.56-2.15,2.92-3,4.1a7.77,7.77,0,0,1-2.17,2.31c-1.53.89-2.64.67-3.32-.63Zm12.05,83.92a21.42,21.42,0,0,1,.74-5.44,23.71,23.71,0,0,1,2-5.24,23.11,23.11,0,0,1,3.06-4.49,14.84,14.84,0,0,1,3.83-3.23,7.49,7.49,0,0,1,3.79-1.17,5.08,5.08,0,0,1,3.06.95,6.27,6.27,0,0,1,2.07,2.89,12.22,12.22,0,0,1,.77,4.57,20.22,20.22,0,0,1-.77,5.5,25.31,25.31,0,0,1-2.07,5.24,23.07,23.07,0,0,1-3.06,4.45,15.27,15.27,0,0,1-3.79,3.17,8.38,8.38,0,0,1-3.83,1.23,4.67,4.67,0,0,1-3.06-.91,6.17,6.17,0,0,1-2-2.88A13,13,0,0,1,361.64,443.8Z" style="fill:#455a64"></path></g></g><g id="freepik--Character--inject-3"><g id="freepik--character--inject-3"><g id="freepik--Bottom--inject-3"><path d="M119.43,387.9l-2.23-19.78,22.53-2s-.95,15.25-.81,22.24c.06,3.3,2.39,9.5,2.39,9.5s-9.43,4.89-14.32,2.89-8.14-9.72-8-11.13S119.43,387.9,119.43,387.9Z" style="fill:#ffbda7"></path><path d="M167.42,419c.31,0,.55,2.87-1.17,4.28-2,1.62-8.27,4.72-15.81,3.63s-11.6-3.47-14.58-6-7.15-6.14-10.56-6.94a24.41,24.41,0,0,1-8.42-4.34c-1-1-.78-5.28-.78-5.28Z" style="fill:#263238"></path><path d="M119.42,387.87a1.2,1.2,0,0,0-1.16,1c-.25,1.18-.57,4.62-1.11,6.56-.74,2.69-1.31,8.22-.93,10.43s6.36,5,9.64,6.27a41.8,41.8,0,0,1,10.6,6.85c3.5,3,10.92,6.08,15.85,6.13,5.83.06,12.43-1.69,14-4.33,1.92-3.26,3.35-7.06-5.22-11.16-1.63-.77-7.31-4.22-9.25-5.47-5.24-3.38-8.91-6.46-11.24-12.32a3.32,3.32,0,0,0-1.21-1.8,2.82,2.82,0,0,0-1.68-.17c-1.45.17-7.21.85-8.53,1.44-1.17.53-2.83,1.14-2.83,2.6a4.76,4.76,0,0,0,.3,1.49c.09.3.17.7-.1.87s-.58,0-.81-.23a21.87,21.87,0,0,1-2.27-2.8,27.67,27.67,0,0,0-2.18-2.53,13.34,13.34,0,0,1-1.47-1C119.3,389.19,119.44,388.55,119.42,387.87Z" style="fill:#455a64"></path><path d="M136.46,419c-1.48-1.25-3.06-2.46-4.65-3.55h0S141.87,421.67,146,419c2.68-1.73,1.46-3.91,1.41-4.61s9.38-5.41,12-5.66h0c.71.4,1.29.74,1.68.9,6.7,2.78,7.53,6.22,6.33,10.51-1.55,2.64-7.46,5.28-15,5.15C147.48,425.18,140,421.91,136.46,419Z" style="fill:#37474f"></path><path d="M146.76,412.34c5.34,2.21,3,3.16,1.52,3.34s-10.46-5.17-15.9-9.57c-5.67-4.58-10-10.68-12.16-12.37-.78-.62-1.63-1.39-2.38-2.11.17-1.16.3-2.22.42-2.78a1.2,1.2,0,0,1,1.16-1c0,.68-.12,1.32.39,1.84a13.34,13.34,0,0,0,1.47,1,27.67,27.67,0,0,1,2.18,2.53,21.87,21.87,0,0,0,2.27,2.8C130.32,402,141.43,410.13,146.76,412.34Z" style="fill:#37474f"></path><path d="M147.91,414.9a.59.59,0,0,1-.33-.13.51.51,0,0,1-.06-.74c1.55-1.8,8.82-6,12.77-5.52a.52.52,0,1,1-.13,1c-3.69-.46-10.6,3.73-11.83,5.16A.54.54,0,0,1,147.91,414.9Z" style="fill:#263238"></path><path d="M143.28,412a.54.54,0,0,1-.34-.12.52.52,0,0,1-.06-.74c1.55-1.8,8.82-6,12.77-5.52a.52.52,0,0,1,.46.58.52.52,0,0,1-.59.46c-3.69-.45-10.6,3.73-11.83,5.16A.52.52,0,0,1,143.28,412Z" style="fill:#263238"></path><path d="M138.63,409.2a.54.54,0,0,1-.33-.12.52.52,0,0,1-.06-.74c1.55-1.81,8.82-6,12.77-5.53a.53.53,0,0,1,.46.59.51.51,0,0,1-.59.45c-3.69-.45-10.6,3.74-11.83,5.17A.56.56,0,0,1,138.63,409.2Z" style="fill:#263238"></path><path d="M134.35,406.05a.54.54,0,0,1-.34-.12.52.52,0,0,1-.06-.74c1.55-1.81,8.84-6,12.77-5.53a.53.53,0,0,1,.46.59.51.51,0,0,1-.59.45c-3.69-.45-10.6,3.74-11.83,5.17A.55.55,0,0,1,134.35,406.05Z" style="fill:#263238"></path><path d="M130.14,402.9a.49.49,0,0,1-.32-.12.51.51,0,0,1-.08-.73c2.14-2.56,9.74-6.06,13.68-5.56a.52.52,0,1,1-.13,1c-3.55-.44-10.83,2.92-12.73,5.19A.49.49,0,0,1,130.14,402.9Z" style="fill:#263238"></path><path d="M82.09,397.19l5.36-23.76L64,369.77l-.38,23.46s-1.79,6.3-.47,8.47,15.4,4.45,16.69,3S82.09,397.19,82.09,397.19Z" style="fill:#ffbda7"></path><path d="M79.75,434.62c-.61,5.33-1.73,8.78-4,11.66s-6.41,3.38-10.48,2S56,443.7,55.07,438.92s-.55-7.92.62-12.79Z" style="fill:#263238"></path><path d="M63.64,393.23c-1.7-.09-1.24,4.1-2,11.29-.87,7.77-4.37,13.86-5.62,20.09-1.42,7.12-1.15,10.41,1.5,15.15s12.6,10.28,17.91,4.61c4.33-4.62,4.77-10.27,4.76-17.56,0-7.53-.1-12.84.53-18.47.59-5.39,2.85-10.37,1.41-11.15-.15.78-1.6,6.24-2.55,6.15a10.06,10.06,0,0,1,.09-2,2.35,2.35,0,0,0-.38-1.81,8.1,8.1,0,0,0-2.73-1.39c-1.66-.49-4.61-1.11-6.3-1.45-.84-.17-1.68-.31-2.53-.41a7.81,7.81,0,0,0-2.16,0,1.3,1.3,0,0,0-1,.63,2,2,0,0,0-.13.81,4.8,4.8,0,0,1-.29,1.46c-.07.21-.25.45-.49.37a.46.46,0,0,1-.25-.47C63.45,398.16,63.58,393.69,63.64,393.23Z" style="fill:#455a64"></path><path d="M56.47,422.6c-.22,1-1.56,7.82.51,9.33,2.24,1.64,3.77-3.65,3.77-3.65s5.48-.81,13.19,3.2c-.46,1.08.58,4.93,2.77,4.41s3.42-8.35,3.44-8.45c0,7-.56,12.45-4.76,16.93-5.31,5.67-15.26.12-17.91-4.61s-2.92-8-1.5-15.15C56.12,423.9,56.29,423.23,56.47,422.6Z" style="fill:#37474f"></path><path d="M61.34,428.82c-.16,2.61-3,1.37-3-2.35s2-12.74,2.74-18.81c.49-8.75.84-14.52,2.54-14.43,0,.08,0,.17,0,.26s-.18,5-.2,5.55c-.31,5.34-.38,15.72-1.14,20.54A74.37,74.37,0,0,0,61.34,428.82Z" style="fill:#37474f"></path><path d="M73,431.3a72.51,72.51,0,0,0,2.07-9c.82-4.77,3.68-14.33,5.09-19.47.46-.84,1.9-5.64,1.9-5.64,1.18.33,0,4.91-.55,7.05s-1.22,4.44-1.91,7.51c-1.76,6.06-1.93,15.16-3.06,18.65S72.35,433.81,73,431.3Z" style="fill:#37474f"></path><path d="M74.1,431.72a.92.92,0,0,1-.23-.09,23.28,23.28,0,0,0-13-2.8.68.68,0,0,1-.74-.48.51.51,0,0,1,.47-.63,24.29,24.29,0,0,1,13.89,3,.55.55,0,0,1,.23.78A.61.61,0,0,1,74.1,431.72Z" style="fill:#263238"></path><path d="M75.79,426.2a.68.68,0,0,1-.2-.07A28.75,28.75,0,0,0,61,423a.69.69,0,0,1-.73-.51.52.52,0,0,1,.5-.61,29.83,29.83,0,0,1,15.37,3.31.57.57,0,0,1,.26.78A.6.6,0,0,1,75.79,426.2Z" style="fill:#263238"></path><path d="M61.72,417.65a.71.71,0,0,1-.52-.44.51.51,0,0,1,.43-.66c7.71-1.35,15,3,15.35,3.18a.56.56,0,0,1,.23.78.66.66,0,0,1-.86.13c-.07,0-7.2-4.25-14.36-3A.61.61,0,0,1,61.72,417.65Z" style="fill:#263238"></path><path d="M62.4,412.61a.72.72,0,0,1-.51-.43.51.51,0,0,1,.42-.67c8.48-1.63,15.37,3,15.66,3.17a.54.54,0,0,1,.17.79.65.65,0,0,1-.87.08c-.06,0-6.7-4.45-14.59-2.94A.88.88,0,0,1,62.4,412.61Z" style="fill:#263238"></path><path d="M63.2,406.94a.68.68,0,0,1-.51-.42.5.5,0,0,1,.4-.67c8-1.64,15.46,3.13,15.77,3.34a.55.55,0,0,1,.19.79.65.65,0,0,1-.86.1c-.08-.05-7.32-4.66-14.71-3.13A.88.88,0,0,1,63.2,406.94Z" style="fill:#263238"></path><path d="M72.64,214c-7.45,18.26-2.56,42.68-3.32,62.58C68.41,300.39,68,319.05,68,319.05c-.28,3.2-2.11,7.68-3.59,23.47C62.83,359.18,62.89,383,62.89,383s14.08,6,22.83,2.91c0,0,9.41-35.68,14-55.29C104,312,107.16,283,107.16,283l5.11,28s-.64,12-.34,20.42c.35,9.79,5.63,47.24,5.63,47.24s13.08,7.83,22.18.36c0,0,4.44-55,4.73-66.73.58-23.08,1.24-68.47-1.49-98.24Z" style="fill:#37474f"></path><path d="M107.16,283,113,246.38s12.6-2.1,18-7.34A23.16,23.16,0,0,1,117,249.83l-6.12,33.88L112.27,311Z" style="fill:#263238"></path><path d="M62.65,383.78c3.93,3.08,15.38,5.71,23.22,2.87L87.45,380c-5.92,2-18.11.73-24.67-3.32Z" style="fill:#455a64"></path><path d="M117.56,379.38c2.65,2.69,14.95,4.91,22.22.66l.53-6.64c-5.51,3.06-18.16,2.54-23.56-.61Z" style="fill:#455a64"></path><path d="M68.91,279.85s-1.22,29.66-1.14,31.82S84,318.1,84.4,316.73c.7-2.28.52-7.38,1.91-32C72.94,283.05,68.91,279.85,68.91,279.85Z" style="fill:#455a64"></path><path d="M83.8,293.23a5.19,5.19,0,0,0-1.52-.13q-.89,0-1.77-.09a26.12,26.12,0,0,1-3.72-.57,30.73,30.73,0,0,1-4.07-1.23c-1.08-.42-2.1-1-3.19-1.38-.1,0-.11.16,0,.2a15.66,15.66,0,0,0,3.41,1.74,25.26,25.26,0,0,0,3.36,1.08,29.11,29.11,0,0,0,3.71.66c.62.07,1.25.11,1.87.13a4,4,0,0,0,2-.14C83.89,293.46,83.9,293.26,83.8,293.23Z" style="fill:#37474f"></path><path d="M76.78,289.09c-.15-.31-.27-.5-.62-.54a1.17,1.17,0,0,0-.81.21,1,1,0,0,0-.4.67,1.14,1.14,0,0,0,1.73,1.1.79.79,0,0,0,.28-.68A1.67,1.67,0,0,0,76.78,289.09Zm-.3.9a.66.66,0,0,1-.81.16c-.42-.24-.33-1,.17-1.09a.64.64,0,0,1,.45.11A.66.66,0,0,1,76.48,290Z" style="fill:#37474f"></path></g><g id="freepik--Top--inject-3"><path d="M123.16,136.75c8.12,1.46,12.06,3.53,18.16,13.32s18.5,37.74,18.5,37.74l14.89,30.39-13.77,5s-6.71-8.93-12.37-15.87c-4.19-5.13-7-8.88-12.48-18.46s-10.32-19.47-10.32-19.47Z" style="fill:#ffbda7"></path><path d="M78.94,194.23c0,2.1-5.35,12.66-8.26,24.05,17.51,22.58,69.4,10.26,73.2-2.45-.82-15.1-1.52-53.25-4.83-60.15a51,51,0,0,0-15.89-18.93,96.1,96.1,0,0,0-11.07-1.47,64.64,64.64,0,0,0-16.59.42c-4.91.76-13,2.89-13,2.89-3.08,2.6-11.6,13.55-9.63,26.75C73.79,171.4,79,179.31,78.94,194.23Z" style="fill:#384B79"></path><path d="M78.94,194.23c0,2.1-5.35,12.66-8.26,24.05,17.51,22.58,69.4,10.26,73.2-2.45-.82-15.1-1.52-53.25-4.83-60.15a51,51,0,0,0-15.89-18.93,96.1,96.1,0,0,0-11.07-1.47,64.64,64.64,0,0,0-16.59.42c-4.91.76-13,2.89-13,2.89-3.08,2.6-11.6,13.55-9.63,26.75C73.79,171.4,79,179.31,78.94,194.23Z" style="fill:#fff;opacity:0.2"></path><path d="M108.36,220.3c-.59-1.29,5.56-2.35,7.82-5.15,1.12-1.39,1-4.08-1.33-3.16-4.81,1.94-7.56,1.46-10.75,2.28" style="fill:#ffbda7"></path><g id="freepik--Like--inject-3"><path d="M111,222.64a7,7,0,0,0-3.28,8,6.19,6.19,0,0,0,6,4.72,7.51,7.51,0,0,0-1.63,7.22c.75,2.53,3.8,6.13,8.29,4.81l21.26-6.25a28.16,28.16,0,0,0,6.79,18c4.72,5.86,13.26,2.6,12.72.76s-4.44-11.68-4.2-14.25,5.71-19.67,5.71-19.67l5.07-1.44L156,184.6l-5,1.55-35.18,10.34c-4.59,1.36-6.83,5.64-5.85,9a13.6,13.6,0,0,0,2.34,4.56c-3,.88-4.83,5.66-4.15,8C109.11,221.43,111,222.64,111,222.64Z" style="fill:#fafafa"></path><path d="M161.13,259.84c.54,1.84-8,5.1-12.72-.76a28.16,28.16,0,0,1-6.79-18l.27-.37,3.78-1.07C148.88,260.24,157.08,260.92,161.13,259.84Z" style="fill:#e0e0e0"></path><rect x="160.9" y="176.06" width="15.98" height="48.25" transform="matrix(-0.96, 0.28, -0.28, -0.96, 387.41, 344.57)" style="fill:#384B79"></rect><rect x="160.9" y="176.06" width="15.98" height="48.25" transform="matrix(-0.96, 0.28, -0.28, -0.96, 387.41, 344.57)" style="opacity:0.2"></rect><path d="M111,222.64s-1.85-1.21-2.86-4.66a3,3,0,0,1-.11-.55c-.29-2.43,1.49-6.6,4.26-7.41a13.6,13.6,0,0,1-2.34-4.56,5.21,5.21,0,0,1-.2-1c-.31-3.13,1.92-6.72,6.05-7.94l7.07-2.08c-4.14,1.22-6.37,4.81-6.06,8a5.75,5.75,0,0,0,.2,1,13.6,13.6,0,0,0,2.34,4.56c-2.77.81-4.55,5-4.26,7.41a4.27,4.27,0,0,0,.11.56c1,3.44,2.87,4.65,2.87,4.65a7,7,0,0,0-3.28,8,.49.49,0,0,0,0,.11,6.15,6.15,0,0,0,6,4.61,7.5,7.5,0,0,0-1.62,7.23q.06.21.15.45c.95,2.48,3.91,5.6,8.14,4.35l-7.07,2.08c-4.22,1.24-7.18-1.87-8.13-4.35-.06-.16-.11-.31-.16-.46a7.51,7.51,0,0,1,1.63-7.22,6.18,6.18,0,0,1-6-4.61.36.36,0,0,0,0-.11A7,7,0,0,1,111,222.64Z" style="fill:#e0e0e0"></path><path d="M156.17,184.25l11.89,40.43-5.2,1.47c-.53,1.65-5.42,17.07-5.65,19.46-.18,1.89,2.09,8.23,3.31,11.63.41,1.16.74,2.07.87,2.52.19.65-.35,1.36-1.48,1.95a9.73,9.73,0,0,1-11.71-2.45,28.39,28.39,0,0,1-6.84-17.8l-20.92,6.16a6.36,6.36,0,0,1-5.79-1,8,8,0,0,1-2.84-4,7.72,7.72,0,0,1,1.31-7.05,6.46,6.46,0,0,1-5.7-4.9,7.29,7.29,0,0,1,3-8.07,9.54,9.54,0,0,1-2.64-4.54,7.3,7.3,0,0,1,.72-4.71,6.71,6.71,0,0,1,3.24-3.47,14.1,14.1,0,0,1-2.15-4.34,6.83,6.83,0,0,1,.87-5.45,8.93,8.93,0,0,1,5.18-3.86l35.17-10.35Zm11.2,40-11.58-39.35L151,186.41l-35.18,10.35a8.41,8.41,0,0,0-4.86,3.62,6.29,6.29,0,0,0-.81,5,13.46,13.46,0,0,0,2.29,4.46l.28.32-.41.12a5.82,5.82,0,0,0-3.28,3.31,6.79,6.79,0,0,0-.69,4.31,8.22,8.22,0,0,0,2.76,4.5l.38.26-.4.22a6.7,6.7,0,0,0-3.15,7.64,5.84,5.84,0,0,0,5.73,4.52l.68,0-.46.5a7.22,7.22,0,0,0-1.56,7,7.55,7.55,0,0,0,2.64,3.7,5.82,5.82,0,0,0,5.3.91l21.61-6.35v.36a27.94,27.94,0,0,0,6.73,17.82,9.16,9.16,0,0,0,11,2.31c.83-.43,1.31-1,1.21-1.3s-.45-1.34-.86-2.49c-1.32-3.69-3.53-9.86-3.34-11.87.24-2.57,5.49-19,5.72-19.72l0-.15Z" style="fill:#455a64"></path><rect x="157.5" y="176.55" width="15.98" height="24.13" transform="matrix(-0.96, 0.28, -0.28, -0.96, 377.48, 322.86)" style="opacity:0.2"></rect><path d="M166.07,182.36a2.32,2.32,0,1,1-2.88-1.57A2.33,2.33,0,0,1,166.07,182.36Z" style="fill:#f0f0f0"></path></g><path d="M104.1,214.27c-3.18.82-5.72.92-10.51-.33-5.09-1.33-22.47-15.65-22.47-15.65l11.95-30s5.65-13.27-.55-29.69c-11.81,2.54-14.64,6.94-16.84,10.74s-3.37,7.27-9.12,23C51.57,186,49,194,47.87,199.58c-1.39,6.86,3.1,10.45,11.7,15.47s14.31,7.66,26.87,13.66c6,2.89,9.75,3.57,15.28,5.14a20.87,20.87,0,0,0,6.43,1,12.17,12.17,0,0,0,5.76-1.31,3.68,3.68,0,0,1,1-.47A7.62,7.62,0,0,1,116,233a7,7,0,0,0,2-.29,10.71,10.71,0,0,0,1.87-1.11,9.29,9.29,0,0,1,.85-.53,5.72,5.72,0,0,1,1-.32,7.86,7.86,0,0,0,2.56-.88,1.38,1.38,0,0,0,.62-1.22s1.17-.1,1.57-.16a8.19,8.19,0,0,0,1.62-.41.77.77,0,0,0,.5-.39.74.74,0,0,0,0-.39c-.46-2-2.48-2.63-4.26-3-4.64-1-7.76-.65-12.29-2.16-2.46-.82-3.07-1.06-3.65-1.78" style="fill:#ffbda7"></path><path d="M71.12,198.29a54.12,54.12,0,0,0-8.81-6.82s3.43-.33,9.53,5Z" style="fill:#f0997a"></path><path d="M124.66,228.73a34.85,34.85,0,0,1-3.54.22c-1.19,0-2.37,0-3.55.05-.58,0-1.17,0-1.78,0s-1.19-.06-1.78-.13c-1.18-.13-2.35-.3-3.51-.54l1.77.1,1.77.1c.59,0,1.18,0,1.76,0s1.17,0,1.77,0c1.18,0,2.37,0,3.55.05Z" style="fill:#f0997a"></path><path d="M120.85,231a14,14,0,0,1-2.71.62c-.9.11-1.81.18-2.72.22s-1.82,0-2.74,0a20.65,20.65,0,0,1-2.72-.23c.91,0,1.81-.08,2.72-.12l2.72-.11,2.71-.12C119,231.18,119.94,231.08,120.85,231Z" style="fill:#f0997a"></path><path d="M187.41,218.94c2.79-.47,2.9-.8,3.1-2.26a7.27,7.27,0,0,0-2-6.32c-1.48-1.39-2.9-2.86-4-3.22s-2.05,1.83-.59,4.12c2.29,3.6,1.47,4.38,1.47,4.38a52.63,52.63,0,0,0-3.14-4.46c-1-1.15-3.54-2.61-5-3.66s-3.29.32-1.73,3l-2.64-1.9c-1.85-1.34-3.24-1-3,1.21a3.27,3.27,0,0,0,.9,2s-1.7-1.7-2.3-1.17c-1.71,1.52-1.08,3,1.36,7.42,2.08,3.76,1.84,5.89.36,6.75l-1,.46s2.08.55,4.07.91c1.45.26,2.85.32,3.8-1.41,0,0,1.83,1.9,3.1.86a8.35,8.35,0,0,0,2-2.93,2.88,2.88,0,0,0,2.94-.89,4.71,4.71,0,0,0,1.35-2.72Z" style="fill:#ffbda7"></path><path d="M175.47,210.49a15.26,15.26,0,0,1,2.29,1.84,9.25,9.25,0,0,1,1.37,2.64,33.68,33.68,0,0,1,1.69,5.53,34.58,34.58,0,0,1-2.48-5.22,14.72,14.72,0,0,0-1.1-2.54C176.72,212,176,211.29,175.47,210.49Z" style="fill:#f0997a"></path><path d="M170.76,211.78a6.54,6.54,0,0,1,2.31,2.16,17,17,0,0,1,1.46,2.8,29.51,29.51,0,0,1,1.82,6,59.78,59.78,0,0,1-2.6-5.65A16.41,16.41,0,0,0,170.76,211.78Z" style="fill:#f0997a"></path><path d="M84.22,84.83a12,12,0,0,0-.52,2.51,6.92,6.92,0,0,0,0,1.64,5.56,5.56,0,0,0,5.41,4.48A8.41,8.41,0,0,0,95.6,90c2.11-2.69,5.26-9,1.16-11.29a8.35,8.35,0,0,0-8.7.72A10.73,10.73,0,0,0,84.22,84.83Z" style="fill:#384B79"></path><path d="M84.22,84.83a12,12,0,0,0-.52,2.51,6.92,6.92,0,0,0,0,1.64,5.56,5.56,0,0,0,5.41,4.48A8.41,8.41,0,0,0,95.6,90c2.11-2.69,5.26-9,1.16-11.29a8.35,8.35,0,0,0-8.7.72A10.73,10.73,0,0,0,84.22,84.83Z" style="opacity:0.25"></path><g id="freepik--Head--inject-3"><path d="M134.17,81.77c-2.74-4-7.61-5.34-10.35-4-2.48-3.35-7.5-5.27-11.64-5.52-15.81-1-20.92,6.81-21.78,9.71-7.48,1-12.86,12.22-8.33,27.64,2,6.71,12.16,14.71,12.77,18.29l7.22-2.42a17.8,17.8,0,0,1,11.45-14.73c10.86-4.26,17-6.91,18.66-9.11C138.88,94.85,136.92,85.73,134.17,81.77Z" style="fill:#263238"></path><path d="M88.8,70.6c-4.2.5-6.85,2.63-7.65,6.69-3.75-.54-7.87.15-10.65,3a9.08,9.08,0,0,0-2.43,7.33c.19,2.51,1.49,3.84,3,5.59a6,6,0,0,0-3.36,7.29c.51,1.75,7.1,8.22,1.81,8.74,2.41,1.67,6.49.25,6.21-3a7.32,7.32,0,0,0,7.13,7.58c5.9.26,10.69-3,12.1-8.72L97.81,75.8C96.65,72.06,92.9,70.1,88.8,70.6Z" style="fill:#263238"></path><path d="M132.11,94a41.2,41.2,0,0,1,.74,5.2,81.64,81.64,0,0,1,.3,10.49c-.52,12.46-4,17.09-7.28,18.66a18.28,18.28,0,0,1-10.41,1.08l.15,7.53s11.33,7.63,1.19,10.55c-3.87,1.11-11.88-.54-16.36-4.06s-5.68-5.7-5.68-5.7l-.2-18s-3.91,3.65-8.7-1.46c-3.42-3.63-4.21-11.35.3-13.74A6.16,6.16,0,0,1,94.89,107c1.7,3.09,4.84,1.91,4.79-1.65s.18-4.65,1.35-6.48c4-6.19,1.18-8.06,4.89-11.63,2.13-2,7.9-2.81,12.27.5C123.26,83.25,130.16,85.19,132.11,94Z" style="fill:#ffbda7"></path><polygon points="117.6 98.42 120.24 112.47 127.23 109.19 117.6 98.42" style="fill:#f0997a"></polygon><path d="M115.46,129.38c-9.53-2-15-5.8-16.73-9.64a12.49,12.49,0,0,0,5.18,7.93c4.6,2.92,11.6,4.14,11.6,4.14Z" style="fill:#f0997a"></path><path d="M125.48,94.76,129.8,97a2.34,2.34,0,0,1-3.2,1.11A2.57,2.57,0,0,1,125.48,94.76Z" style="fill:#263238"></path><path d="M106.86,97.62l4.78-2.05A2.49,2.49,0,0,1,110.37,99,2.73,2.73,0,0,1,106.86,97.62Z" style="fill:#263238"></path><path d="M128.45,102.13c.36,1-.33,1.32-1.28,1.66s-1.81.55-2.16-.44a1.83,1.83,0,1,1,3.44-1.22Z" style="fill:#263238"></path><path d="M125.18,101.32a4.82,4.82,0,0,1,1.37-.51,4,4,0,0,1,1.42-.09,4.46,4.46,0,0,1,1.45.41s.07.12,0,.12c-.39,0-.73-.1-1.3-.12a7.55,7.55,0,0,0-3.38.9l-.58.33s-.09-.1-.07-.15A3.33,3.33,0,0,1,125.18,101.32Z" style="fill:#263238"></path><path d="M110,102.79c-.22,1,.51,1.26,1.5,1.47s1.86.31,2.08-.72a1.83,1.83,0,1,0-3.58-.75Z" style="fill:#263238"></path><path d="M113.13,101.55a5,5,0,0,0-1.43-.32,4.17,4.17,0,0,0-1.41.1,5.09,5.09,0,0,0-1.39.6s0,.13,0,.12c.38-.09.71-.2,1.27-.29a6.59,6.59,0,0,1,1.6,0,6.45,6.45,0,0,1,1.87.44l.62.24c.06,0,.08-.11,0-.15A3.27,3.27,0,0,0,113.13,101.55Z" style="fill:#263238"></path></g><path d="M118.26,117c.23-.24-.23-.86-.4-1a4.42,4.42,0,0,0-.67-.46,5.6,5.6,0,0,0-1.43-.59,4.93,4.93,0,0,0-3.13.15c-.19.07-.14.35,0,.47a.61.61,0,0,0,.22.2.5.5,0,0,0,.3,0h0c.15,0,.3-.07.45-.09a3.45,3.45,0,0,1,.72-.08,4.69,4.69,0,0,1,1.34.17,4.26,4.26,0,0,1,1.18.51c.31.19.61.4.91.61.14.1.27.22.45.13A.18.18,0,0,0,118.26,117Z" style="fill:#b16668"></path></g></g></g></svg>